<svg width="282" height="141" viewBox="0 0 282 141" fill="none" xmlns="http://www.w3.org/2000/svg">
<path d="M2.13623e-06 2.13623e-06H0.850001L3.59 7.46L6.35 2.13623e-06H7.19L3.96 8.5H3.17L2.13623e-06 2.13623e-06Z" transform="translate(122.261 86.7598)" fill="#ffffff"/>
<path d="M-2.44141e-06 2.13623e-06H5.19V0.720003H0.789998V3.72H4.94V4.44H0.789998V7.75H5.38V8.47H-2.44141e-06V2.13623e-06Z" transform="translate(137.062 86.7598)" fill="#ffffff"/>
<path d="M1.52588e-06 2.13623e-06H1L6.17 7.44V2.13623e-06H6.96V8.5H5.96L0.790002 1.06V8.5H1.52588e-06V2.13623e-06Z" transform="translate(150.651 86.7598)" fill="#ffffff"/>
<path d="M2.9 0.720003H-3.05176e-06V2.13623e-06H6.6V0.720003H3.69V8.5H2.9V0.720003Z" transform="translate(165.451 86.7598)" fill="#ffffff"/>
<path d="M6.27002 5.24C6.27286 5.68171 6.2191 6.12196 6.11003 6.55C6.0173 6.94961 5.83998 7.32471 5.59002 7.65C5.32678 7.98672 4.98283 8.25156 4.59002 8.42C4.12876 8.61119 3.63434 8.70959 3.13502 8.70959C2.63571 8.70959 2.14128 8.61119 1.68002 8.42C1.28721 8.25156 0.943261 7.98672 0.68002 7.65C0.429814 7.32355 0.249413 6.94912 0.150021 6.55C0.0491551 6.12067 -0.00118794 5.68102 1.96941e-05 5.24V2.13623e-06H0.790021V5C0.792459 5.33483 0.819197 5.66904 0.870022 6C0.924224 6.34923 1.03573 6.68711 1.20002 7C1.37105 7.29624 1.61121 7.5467 1.90002 7.73C2.2696 7.92033 2.67931 8.01964 3.09503 8.01964C3.51074 8.01964 3.92044 7.92033 4.29002 7.73C4.57838 7.54932 4.81587 7.29807 4.98002 7C5.15364 6.69114 5.26572 6.35154 5.31002 6C5.36908 5.66992 5.39919 5.33532 5.40002 5V2.13623e-06H6.19001L6.27002 5.24Z" transform="translate(179.602 86.7598)" fill="#ffffff"/>
<path d="M4.27246e-06 2.13623e-06H2.23H2.69001C3.13757 0.0177496 3.57959 0.105474 4 0.259997C4.22748 0.349086 4.43738 0.477742 4.62 0.640002C4.81616 0.819034 4.97284 1.03701 5.08001 1.28C5.20764 1.57652 5.26906 1.89731 5.26 2.22C5.27258 2.56547 5.20049 2.90878 5.05001 3.22C4.92127 3.47169 4.74061 3.69322 4.51999 3.87C4.30876 4.02883 4.07206 4.15057 3.82 4.23C3.58185 4.307 3.33766 4.36387 3.09 4.4L5.56 8.48H4.65999L2.26999 4.48H0.789998V8.48H4.27246e-06V2.13623e-06ZM0.789998 3.75H2.48C2.8205 3.7612 3.15999 3.70688 3.48 3.59C3.70609 3.51019 3.91122 3.38029 4.08001 3.21C4.21918 3.07414 4.32228 2.90573 4.37999 2.72C4.43459 2.56518 4.46823 2.40374 4.48 2.24C4.47622 2.07702 4.44928 1.9154 4.4 1.76C4.34263 1.5712 4.23958 1.39946 4.1 1.26C3.9312 1.08971 3.7261 0.959807 3.5 0.879999C3.17879 0.767812 2.84019 0.713639 2.5 0.720003H0.819996L0.789998 3.75Z" transform="translate(194.521 86.7598)" fill="#ffffff"/>
<path d="M0.0399951 2.13623e-06H5.23V0.720003H0.830004V3.72H4.92V4.44H0.789995V7.75H5.39V8.47H1.83105e-06L0.0399951 2.13623e-06Z" transform="translate(208.082 86.7598)" fill="#ffffff"/>
<path d="M0.870002 7.12987C1.0568 7.46938 1.3382 7.7473 1.68 7.92987C2.03096 8.11507 2.42325 8.20799 2.82 8.19987C3.07164 8.20153 3.32178 8.16097 3.56 8.07987C3.78066 8.00087 3.98676 7.88599 4.17001 7.73987C4.34567 7.59159 4.48615 7.40609 4.58128 7.19681C4.6764 6.98753 4.72378 6.75972 4.71999 6.52986C4.73089 6.27434 4.66844 6.02104 4.54 5.79987C4.41225 5.60373 4.24119 5.43951 4.04 5.31987C3.81719 5.19154 3.58283 5.0844 3.34 4.99987L2.53001 4.73987C2.26001 4.64987 1.99 4.54987 1.73 4.43987C1.47524 4.33044 1.23908 4.18199 1.03001 3.99987C0.81263 3.81526 0.64141 3.5824 0.530006 3.31987C0.397076 3.0036 0.332332 2.66285 0.340004 2.31987C0.337153 1.9731 0.415939 1.63054 0.569999 1.31987C0.70882 1.0321 0.914568 0.781785 1.17001 0.58987C1.43137 0.392374 1.72603 0.243347 2.04 0.149867C2.80205 -0.0771719 3.61782 -0.0455214 4.35999 0.239871C4.76223 0.421049 5.10782 0.707885 5.35999 1.06987L4.68 1.55987C4.50014 1.29715 4.26016 1.08115 3.98 0.929866C3.6696 0.776994 3.32568 0.704773 2.98 0.719867C2.73308 0.717254 2.48713 0.750946 2.25001 0.819865C2.03364 0.883086 1.8304 0.984707 1.65 1.11987C1.47405 1.25269 1.33046 1.42363 1.23 1.61987C1.12453 1.84133 1.07311 2.08467 1.07999 2.32987C1.06209 2.50958 1.08126 2.69105 1.1363 2.86306C1.19134 3.03506 1.28109 3.19394 1.4 3.32987C1.62838 3.5656 1.90456 3.74973 2.21 3.86987C2.55391 4.01335 2.90827 4.13035 3.27 4.21987C3.61572 4.31986 3.95069 4.45385 4.27 4.61987C4.59419 4.78645 4.87237 5.0303 5.07999 5.32987C5.31985 5.69724 5.43552 6.13187 5.41 6.56987C5.41733 6.90592 5.34928 7.23934 5.21084 7.54564C5.0724 7.85194 4.86708 8.12333 4.60999 8.33987C4.35803 8.54518 4.06969 8.70123 3.76 8.79987C3.43685 8.90418 3.09957 8.95814 2.76 8.95986C2.22836 8.96574 1.70105 8.86369 1.21 8.65987C0.717155 8.45269 0.2963 8.10487 7.32422e-06 7.65987L0.870002 7.12987Z" transform="translate(221.071 86.5601)" fill="#ffffff"/>
<path d="M84.5114 0C81.0014 2.43 77.7514 4.56 74.6314 6.86C69.3914 10.7 64.2914 14.72 59.0014 18.5C57.2202 19.6106 55.3386 20.5514 53.3814 21.31C43.3114 26 33.5114 31.21 24.7114 38.09C19.4614 42.19 14.8714 46.89 11.7114 52.86C8.02464 59.8525 6.88958 67.9112 8.50142 75.65C8.93372 77.4138 8.88538 79.2612 8.36142 81C7.96142 82.13 7.78142 83.34 7.36142 85C6.36142 83.12 5.62142 81.69 4.92142 80.23C2.31756 75.0163 0.690712 69.3698 0.12142 63.57C-0.70858 53.47 2.74142 44.9 9.71142 37.72C16.6814 30.54 25.1914 25.32 34.0214 20.72C49.8914 12.36 66.5814 6 83.4914 0.17C83.6814 0.11 83.9014 0.1 84.5114 0Z" transform="translate(54 11)" fill="#ffffff"/>
<path d="M66.8042 -1.52588e-07C62.8042 3 59.1142 5.77 55.5042 8.62C42.5242 18.86 30.3442 29.93 19.6442 42.55C12.9742 50.4 7.72421 59.11 4.87421 69.12C4.79421 69.37 4.66421 69.61 4.56421 69.86L4.03421 70C3.03421 67.17 1.79421 64.41 1.03421 61.51C-1.87579 50.03 1.51421 40.17 9.20421 31.51C14.3342 25.75 20.7142 21.61 27.2742 17.74C39.5242 10.56 52.6142 5.2 65.8642 0.2C66.1738 0.11675 66.4876 0.0499894 66.8042 -1.52588e-07Z" transform="translate(66.4771 26.6599)" fill="#ffffff"/>
<path d="M23.69 -1.06812e-06C15 8.61 6.64 17.48 0.43 28.13L0 27.98C0.24 26.46 0.369998 24.91 0.759998 23.42C1.99629 18.9055 4.41239 14.8015 7.76 11.53C12.4598 6.90727 17.8303 3.02018 23.69 -1.06812e-06Z" transform="translate(86.0015 56.8701)" fill="#ffffff"/>
<path d="M1.55 18.0257C3.33 20.5157 6.61 21.0257 7.8 20.4357C10.62 19.1357 10.8 16.3057 9.74 14.8857C9.13 14.0557 5.94 11.8857 4.83 10.8857C3.25 9.59565 -0.3 6.88565 1.18 3.37565C3.35 -1.82435 8.43 0.375653 9.24 0.975653C10.2116 1.60037 11.0676 2.38869 11.77 3.30565L10.37 4.35565C9.9 3.64565 7.37 1.51565 5.24 2.09565C4.5962 2.18973 4.00633 2.50823 3.57452 2.99493C3.14272 3.48163 2.89673 4.10523 2.88 4.75565C2.45 8.75565 12.78 11.6357 12.56 16.7557C12.5208 17.5713 12.3188 18.3709 11.9658 19.1073C11.6128 19.8437 11.116 20.502 10.5047 21.0435C9.89339 21.5849 9.17988 21.9985 8.40623 22.2599C7.63259 22.5214 6.81444 22.6253 6 22.5656C4.79397 22.547 3.61208 22.2248 2.56343 21.6288C1.51478 21.0328 0.63318 20.1823 0 19.1557L1.55 18.0257Z" transform="translate(123.001 55.7043)" fill="#ffffff"/>
<path d="M0.00075798 11.1603C-0.0163091 9.63229 0.258622 8.11511 0.810763 6.69027C1.32031 5.37954 2.0851 4.18306 3.06076 3.17027C4.04494 2.1633 5.22621 1.37011 6.53076 0.840275C9.39511 -0.280089 12.5764 -0.280089 15.4408 0.840275C16.7423 1.3703 17.9202 2.16355 18.9008 3.17027C19.8764 4.18306 20.6412 5.37954 21.1508 6.69027C21.7029 8.11511 21.9778 9.63229 21.9608 11.1603C21.9767 12.6947 21.7019 14.2182 21.1508 15.6503C20.6438 16.9682 19.8789 18.1718 18.9008 19.1903C17.9231 20.1979 16.7442 20.9884 15.4408 21.5103C12.5714 22.6038 9.40011 22.6038 6.53076 21.5103C5.22536 20.9913 4.04327 20.2043 3.06076 19.2003C2.08266 18.1818 1.31772 16.9782 0.810763 15.6603C0.258411 14.2251 -0.0164604 12.698 0.00075798 11.1603ZM2.00076 11.1603C1.99958 12.4197 2.22309 13.6693 2.66076 14.8503C3.05294 15.9611 3.66515 16.9815 4.46076 17.8503C5.25657 18.7089 6.22422 19.3903 7.30076 19.8503C9.69728 20.8152 12.3742 20.8152 14.7708 19.8503C15.8443 19.3902 16.8087 18.7086 17.6008 17.8503C18.3964 16.9815 19.0086 15.9611 19.4008 14.8503C20.2409 12.462 20.2409 9.85855 19.4008 7.47027C19.0086 6.35941 18.3964 5.33907 17.6008 4.47027C16.8087 3.61191 15.8443 2.93039 14.7708 2.47027C12.3742 1.50534 9.69728 1.50534 7.30076 2.47027C6.22422 2.93022 5.25657 3.61167 4.46076 4.47027C3.66053 5.35084 3.04807 6.38521 2.66076 7.51027C2.22092 8.6774 1.99072 9.91306 1.98076 11.1603H2.00076Z" transform="translate(147.341 56.4897)" fill="#ffffff"/>
<path d="M0.0799994 0H5.66H6.8C7.32345 0.0249361 7.84462 0.0850722 8.36 0.18C8.94366 0.286591 9.51613 0.447283 10.07 0.66C10.6496 0.889752 11.1793 1.22931 11.63 1.66C12.111 2.10976 12.4984 2.6501 12.77 3.25C13.0895 3.98765 13.2431 4.78646 13.22 5.59C13.2543 6.45979 13.0758 7.32481 12.7 8.11C12.3801 8.73485 11.93 9.28386 11.38 9.72C10.8526 10.1263 10.2564 10.4345 9.61999 10.63C9.02263 10.8203 8.41055 10.9607 7.79001 11.05L13.94 21.27H11.69L5.69 11.19H2V21.27H-2.44141e-06L0.0799994 0ZM2.08 9.36H6.28C7.14348 9.38786 8.00466 9.25563 8.82 8.97C9.39037 8.75103 9.9058 8.40968 10.33 7.97C10.671 7.62471 10.9247 7.20303 11.07 6.74C11.3236 5.96011 11.3236 5.1199 11.07 4.34C10.9247 3.87697 10.671 3.45529 10.33 3.11C9.9058 2.67032 9.39037 2.32898 8.82 2.11C8.00466 1.82437 7.14348 1.69215 6.28 1.72H2.08V9.36Z" transform="translate(182.062 57)" fill="#ffffff"/>
<path d="M9.31 0H11.31L20.25 21.24H18.07L15.76 15.6H4.47L2.07001 21.24H-1.2207e-06L9.31 0ZM10.24 2.16L5.24 13.8H14.99L10.24 2.16Z" transform="translate(205.531 57)" fill="#ffffff"/>
</svg>
